<?xml version="1.0" encoding="UTF-8"?>
<svg id="_图层_1" xmlns="http://www.w3.org/2000/svg" viewBox="0 0 820.9344 815.7823">
    <path
        d="M0,510.0784c0-38.861,0-58.292,12.0726-70.364,12.0727-12.073,31.5028-12.073,70.3648-12.073h206.092c38.861,0,58.292,0,70.364,12.073,12.073,12.072,12.073,31.503,12.073,70.364v206.092c0,38.862,0,58.292-12.073,70.3651-12.072,12.072-31.503,12.072-70.364,12.072H82.4374c-38.862,0-58.2921,0-70.3648-12.072-12.0726-12.0731-12.0726-31.5031-12.0726-70.3651v-206.092Z"
        style="fill:#ec4899;" />
    <path
        d="M820.9344,613.1244c0,111.925-90.733,202.658-202.657,202.658s-202.658-90.733-202.658-202.658,90.733-202.657,202.658-202.657,202.657,90.733,202.657,202.657Z"
        style="fill:#831843;" />
    <path
        d="M120.6284,84.458C149.7714,28.1527,164.3434,0,186.3414,0s36.57,28.1526,65.713,84.4579l85.136,164.4845c28.496,55.054,42.744,82.582,31.815,103.162-10.929,20.579-39.795,20.579-97.528,20.579H101.2064c-57.733,0-86.599,0-97.5278-20.579-10.9289-20.58,3.319-48.108,31.8147-103.162L120.6284,84.458Z"
        style="fill:#64748b;" />
</svg>